#!OML:ASF E:\emotionWalksFemale\Project 1\Capture day 1\Session 1\Female1.ASF
:FULLY-SPECIFIED
:DEGREES
521
root 8.57677 15.5286 20.1649 358.033 -5.80382 1.065
lowerback 9.60415 1.15968 0.370363
upperback -4.18423 1.59195 -0.169925
thorax -9.86184 0.737278 -0.676079
lowerneck -9.17552 -2.52833 -6.99956
upperneck 16.9736 -3.45625 6.23022
head 6.91341 -1.5962 2.87473
rclavicle 1.48592e-014 7.95139e-015
rhumerus -47.9285 19.4361 -101.964
rradius 37.4468
rwrist 27.4406
rhand 2.42286 -54.2383
rfingers 7.12502
rthumb 27.9089 -802.184
lclavicle 1.48592e-014 7.95139e-015
lhumerus -45.1333 -3.62031 91.1366
lradius 37.224
lwrist -11.8
lhand 2.24699 -35.6351
lfingers 7.12502
lthumb 27.7408 -7.66174
rfemur 1.92893 20.5601 26.7058
rtibia 15.2504
rfoot -14.2936 -23.344
rtoes -4.41962
lfemur -3.77514 -16.8358 -26.1483
ltibia 23.6976
lfoot -18.3421 20.0024
ltoes -37.6923
522
root 8.57576 15.5309 20.1667 358.213 -5.61841 1.23577
lowerback 9.87093 1.16219 0.125833
upperback -4.53344 1.55627 -0.241013
thorax -10.4121 0.729 -0.620703
lowerneck -9.01479 -2.51582 -6.94412
upperneck 17.4191 -3.49818 6.33823
head 7.03154 -1.607 2.90242
rclavicle 4.36084e-015 -5.06901e-015
rhumerus -48.4141 19.8324 -102.346
rradius 37.6387
rwrist 27.7135
rhand 1.39582 -53.9174
rfingers 7.12502
rthumb 26.9266 -802.019
lclavicle 4.36084e-015 -5.06901e-015
lhumerus -45.5649 -3.22305 90.6118
lradius 37.5328
lwrist -12.5244
lhand 2.42488 -36.1387
lfingers 7.12502
lthumb 27.9109 -8.19283
rfemur 1.87574 20.4334 26.4428
rtibia 14.9544
rfoot -14.2036 -23.3541
rtoes -4.23808
lfemur -3.9253 -17.2661 -26.3429
ltibia 23.5927
lfoot -18.5655 20.3482
ltoes -37.4862
523
root 8.57835 15.5361 20.1659 358.422 -5.36729 1.29867
lowerback 9.47876 1.06351 -0.00686235
upperback -4.40611 1.40877 -0.199307
thorax -10.0431 0.671212 -0.463085
lowerneck -9.21423 -2.52037 -7.14611
upperneck 17.5435 -3.49197 6.49125
head 7.11273 -1.60079 2.98692
rclavicle -2.90101e-014 -1.48095e-014
rhumerus -48.1084 20.7162 -102.475
rradius 37.7481
rwrist 27.4828
rhand 1.23533 -53.8163
rfingers 7.12502
rthumb 26.7731 -801.942
lclavicle -2.90101e-014 -1.48095e-014
lhumerus -44.952 -3.03363 90.3911
lradius 37.3959
lwrist -12.7665
lhand 0.797521 -36.5112
lfingers 7.12502
lthumb 26.354 -8.32243
rfemur 1.8504 20.0834 26.2379
rtibia 14.5291
rfoot -13.9484 -23.1663
rtoes -4.69757
lfemur -4.15385 -17.8398 -26.4357
ltibia 23.628
lfoot -19.0758 20.4362
ltoes -36.1468
524
root 8.57508 15.5355 20.1713 358.257 -5.28445 0.55766
lowerback 9.52238 0.996785 0.615094
upperback -4.20385 1.42692 0.0531563
thorax -9.83693 0.650686 -0.544124
lowerneck -9.44951 -2.5409 -7.12752
upperneck 17.7956 -3.50779 6.43113
head 7.23629 -1.6082 2.96346
rclavicle 1.85118e-015 6.95746e-015
rhumerus -47.9154 21.2936 -102.571
rradius 37.8436
rwrist 27.0538
rhand 1.25191 -53.7351
rfingers 7.12502
rthumb 26.7889 -801.858
lclavicle 1.85118e-015 6.95746e-015
lhumerus -44.256 -3.491 90.4528
lradius 36.9093
lwrist -12.3831
lhand 1.39045 -36.4948
lfingers 7.12502
lthumb 26.9215 -8.39227
rfemur 2.35459 20.2341 27.2125
rtibia 14.0951
rfoot -13.6297 -23.331
rtoes -4.98255
lfemur -3.93571 -18.2552 -25.7487
ltibia 23.76
lfoot -19.4535 20.7068
ltoes -35.007
525
root 8.57482 15.5303 20.172 358.152 -5.08488 0.0922633
lowerback 9.51346 0.962635 1.05744
upperback -4.01719 1.44839 0.152699
thorax -9.61801 0.639027 -0.687801
lowerneck -9.62994 -2.61264 -7.09934
upperneck 17.9839 -3.62176 6.50168
head 7.3387 -1.65155 2.97188
rclavicle 2.6339e-015 7.85199e-015
rhumerus -47.6184 21.6244 -102.588
rradius 37.9177
rwrist 26.4202
rhand 1.02849 -53.7091
rfingers 7.12502
rthumb 26.5751 -801.865
lclavicle 2.6339e-015 7.85199e-015
lhumerus -43.6229 -4.07481 90.3999
lradius 36.6381
lwrist -12.1093
lhand -0.0619415 -36.6947
lfingers 7.12502
lthumb 25.531 -8.38539
rfemur 2.673 20.1786 27.8049
rtibia 13.8109
rfoot -13.3458 -23.4661
rtoes -5.16341
lfemur -3.79875 -18.1404 -25.3545
ltibia 23.8265
lfoot -18.7717 21.3011
ltoes -37.8671
526
root 8.57798 15.5277 20.1664 358.209 -4.74178 0.157726
lowerback 10.0311 0.927129 0.932409
upperback -4.34243 1.39151 0.12997
thorax -10.2873 0.611488 -0.646243
lowerneck -9.53498 -2.63372 -7.14618
upperneck 18.4916 -3.69228 6.6011
head 7.49469 -1.68165 3.01218
rclavicle 1.62755e-015 2.69353e-014
rhumerus -48.0474 21.6374 -102.722
rradius 38.0245
rwrist 25.6375
rhand 1.03031 -53.8324
rfingers 7.12502
rthumb 26.5769 -801.988
lclavicle 1.62755e-015 2.69353e-014
lhumerus -43.934 -4.12164 90.1938
lradius 36.8049
lwrist -12.6621
lhand -1.22844 -36.6805
lfingers 7.12502
lthumb 24.4132 -8.2159
rfemur 2.85052 19.8248 27.6679
rtibia 13.2786
rfoot -12.8059 -23.4694
rtoes -6.10067
lfemur -3.97283 -17.8933 -25.4508
ltibia 24.0316
lfoot -18.303 21.4477
ltoes -40.655
527
root 8.58404 15.5425 20.1553 358.496 -4.27963 0.829174
lowerback 9.45138 0.884177 0.312857
upperback -4.14267 1.22118 -0.0872831
thorax -9.73285 0.566268 -0.485523
lowerneck -9.94047 -2.71881 -7.0302
upperneck 18.7512 -3.77442 6.39418
head 7.65356 -1.72362 2.91548
rclavicle 2.25372e-014 1.58034e-014
rhumerus -47.3789 21.8855 -102.508
rradius 37.9235
rwrist 24.5356
rhand 0.747986 -53.8921
rfingers 7.12502
rthumb 26.3066 -802.088
lclavicle 2.25372e-014 1.58034e-014
lhumerus -43.0677 -4.02046 89.8644
lradius 36.7626
lwrist -13.2469
lhand -1.265 -36.286
lfingers 7.12502
lthumb 24.3782 -7.81666
rfemur 2.48631 19.0586 26.6653
rtibia 13.1638
rfoot -12.4926 -23.1613
rtoes -7.25824
lfemur -4.42933 -18.378 -26.0665
ltibia 24.082
lfoot -19.1715 20.751
ltoes -38.1214
528
root 8.58269 15.5499 20.1521 358.448 -4.01095 0.541315
lowerback 10.1924 0.830459 0.438205
upperback -4.53211 1.18582 0.0549412
thorax -10.6058 0.540552 -0.415072
lowerneck -9.56771 -2.70707 -7.13825
upperneck 19.2269 -3.79465 6.43862
head 7.74689 -1.74394 2.95472
rclavicle 1.44119e-015 -6.55989e-015
rhumerus -48.0488 21.8618 -102.696
rradius 37.9203
rwrist 23.3558
rhand 0.330852 -53.917
rfingers 7.12502
rthumb 25.9072 -802.172
lclavicle 1.44119e-015 -6.55989e-015
lhumerus -43.1141 -4.06524 89.7462
lradius 36.4069
lwrist -13.0248
lhand -0.455834 -35.9293
lfingers 7.12502
lthumb 25.1537 -7.56659
rfemur 2.43064 18.6946 26.9791
rtibia 13.3699
rfoot -12.3109 -23.1797
rtoes -7.8659
lfemur -4.44356 -18.7469 -25.719
ltibia 24.0655
lfoot -19.7393 20.3134
ltoes -35.4008
529
root 8.5814 15.5455 20.1453 358.35 -3.68676 0.47304
lowerback 9.87431 0.794021 0.451426
upperback -4.15745 1.13742 0.0852552
thorax -10.0014 0.521767 -0.371563
lowerneck -9.7961 -2.82743 -7.27734
upperneck 19.1798 -3.95832 6.63195
head 7.7915 -1.80987 3.024
rclavicle 6.33626e-015 8.94531e-015
rhumerus -47.3523 21.999 -102.383
rradius 37.8639
rwrist 22.0174
rhand 0.0281421 -54.0127
rfingers 7.12502
rthumb 25.6173 -802.31
lclavicle 6.33626e-015 8.94531e-015
lhumerus -41.8054 -4.2026 89.5329
lradius 35.7517
lwrist -13.0633
lhand 0.494495 -35.9725
lfingers 7.12502
lthumb 26.0639 -7.74065
rfemur 2.37526 18.3849 27.0706
rtibia 13.6645
rfoot -12.292 -23.2484
rtoes -8.42226
lfemur -4.42258 -18.7947 -25.6436
ltibia 24.0209
lfoot -19.6036 20.0898
ltoes -34.7541
530
root 8.57782 15.5404 20.1379 358.199 -3.27505 0.599872
lowerback 10.4768 0.780477 0.25503
upperback -4.36663 1.09093 0.042285
thorax -10.595 0.507193 -0.310334
lowerneck -9.60785 -2.98151 -7.34041
upperneck 19.6179 -4.19389 6.62413
head 7.92168 -1.93093 3.01473
rclavicle 2.41523e-014 1.66979e-014
rhumerus -47.6917 21.6475 -102.319
rradius 37.8872
rwrist 20.8779
rhand 0.0336047 -54.1664
rfingers 7.12502
rthumb 25.6226 -802.463
lclavicle 2.41523e-014 1.66979e-014
lhumerus -41.7121 -4.50952 89.4728
lradius 35.3517
lwrist -13.5375
lhand -0.926369 -36.0842
lfingers 7.12502
lthumb 24.7028 -7.65889
rfemur 2.41354 18.0128 26.97
rtibia 13.864
rfoot -12.1174 -23.2967
rtoes -9.26559
lfemur -4.37625 -18.7803 -25.7803
ltibia 24.0646
lfoot -19.5391 19.6358
ltoes -34.9195
531
root 8.57255 15.5356 20.1319 358.088 -2.8174 0.795652
lowerback 10.2544 0.759001 0.0113806
upperback -4.0776 1.01744 -0.0344938
thorax -10.1449 0.487202 -0.235169
lowerneck -9.85766 -3.1471 -7.33228
upperneck 19.8797 -4.40311 6.53909
head 8.0689 -2.03255 2.96359
rclavicle 1.46728e-014 -9.64106e-015
rhumerus -47.0741 21.4316 -101.904
rradius 37.7415
rwrist 19.8649
rhand 0.880582 -54.6071
rfingers 7.12502
rthumb 26.4335 -802.784
lclavicle 1.46728e-014 -9.64106e-015
lhumerus -40.8258 -4.99758 89.4339
lradius 34.95
lwrist -13.7965
lhand -2.16504 -35.9205
lfingers 7.12502
lthumb 23.5151 -7.33781
rfemur 2.18323 17.6069 26.7913
rtibia 14.5099
rfoot -12.2376 -23.4826
rtoes -9.51264
lfemur -4.26359 -18.776 -25.9542
ltibia 23.9395
lfoot -19.556 19.0161
ltoes -34.535
532
root 8.56734 15.5314 20.1264 358.029 -2.39266 0.923946
lowerback 10.0879 0.726503 -0.202766
upperback -3.86707 0.940522 -0.0622548
thorax -9.81719 0.463766 -0.125477
lowerneck -10.0188 -3.26115 -7.50235
upperneck 20.125 -4.55375 6.64658
head 8.19853 -2.10323 3.01372
rclavicle -1.14798e-014 -1.43125e-014
rhumerus -46.5216 21.2337 -101.528
rradius 37.4756
rwrist 18.9192
rhand 1.41165 -55.0265
rfingers 7.12502
rthumb 26.9418 -803.126
lclavicle -1.14798e-014 -1.43125e-014
lhumerus -40.085 -4.92111 89.1648
lradius 34.7379
lwrist -14.5443
lhand -2.02707 -36.4846
lfingers 7.12502
lthumb 23.6474 -7.91895
rfemur 1.89711 17.4241 26.7037
rtibia 15.2241
rfoot -12.8177 -23.8201
rtoes -8.19908
lfemur -4.20202 -18.7984 -26.0418
ltibia 23.7923
lfoot -19.4222 18.6191
ltoes -34.1798
